<?xml version="1.0" encoding="UTF-8" standalone="no"?>
<!DOCTYPE svg PUBLIC "-//W3C//DTD SVG 1.1//EN" "http://www.w3.org/Graphics/SVG/1.1/DTD/svg11.dtd">
<svg width="100%" height="100%" viewBox="0 0 128 32" version="1.1" xmlns="http://www.w3.org/2000/svg" xmlns:xlink="http://www.w3.org/1999/xlink" xml:space="preserve" xmlns:serif="http://www.serif.com/" style="fill-rule:evenodd;clip-rule:evenodd;stroke-linecap:round;stroke-linejoin:round;stroke-miterlimit:1.5;">
    <g id="heart" transform="matrix(4,0,0,1,0,0)">
        <rect x="0" y="0" width="32" height="32" style="fill:none;"/>
        <g transform="matrix(0.25,0,0,0.961049,0.00833333,-0.0203618)">
            <path d="M23.322,20.416L23.322,1.894L11.443,1.894L11.443,20.416L8.582,20.416L11.443,24.001L11.443,24.784L12.068,24.784L17.383,31.445L22.697,24.784L23.322,24.784L23.322,24.001L26.183,20.416L23.322,20.416Z" style="stroke:rgb(235,235,235);stroke-width:2.04px;"/>
        </g>
        <g transform="matrix(0.558974,0,0,2.2359,-14.1835,7.40918)">
            <g>
                <g transform="matrix(1,0,0,1,45.479,8.137)">
                    <text x="0px" y="0px" style="font-family:'ArialMT', 'Arial', sans-serif;font-size:12px;fill:rgb(235,235,235);">S</text>
                </g>
                <g transform="matrix(1,0,0,1,52.753,8.137)">
                    <text x="0px" y="0px" style="font-family:'ArialMT', 'Arial', sans-serif;font-size:12px;fill:rgb(235,235,235);">A<tspan x="7.113px 15.117px " y="0px 0px ">VE</tspan></text>
                </g>
            </g>
        </g>
    </g>
</svg>
