<svg width="100%" height="100%" viewBox="0 0 128 32" version="1.1" xmlns="http://www.w3.org/2000/svg" xmlns:xlink="http://www.w3.org/1999/xlink" xml:space="preserve" xmlns:serif="http://www.serif.com/" style="fill-rule:evenodd;clip-rule:evenodd;stroke-linecap:round;stroke-linejoin:round;stroke-miterlimit:1.5;">
    <g id="heart" transform="matrix(4,0,0,1,0,0)">
        <rect x="0" y="0" width="32" height="32" style="fill:none;"/>
        <g transform="matrix(0.223171,0,0,0.917689,0.785993,0.813137)">
            <path id="drawing" d="M16,6.4C19.368,0 26.105,0 29.474,3.2C32.842,6.4 32.842,12.8 29.474,19.2C27.116,24 21.053,28.8 16,32C10.947,28.8 4.884,24 2.526,19.2C-0.842,12.8 -0.842,6.4 2.526,3.2C5.895,0 12.632,0 16,6.4Z" style="stroke:rgb(235,235,235);stroke-width:2.21px;"/>
        </g>
        <g transform="matrix(0.558974,0,0,2.2359,-14.1835,7.40918)">
            <text x="45.479px" y="8.137px" style="font-family:'ArialMT', 'Arial', sans-serif;font-size:12px;fill:rgb(235,235,235);">L<tspan x="52.753px 56.687px 65.291px " y="8.137px 8.137px 8.137px ">IKE</tspan></text>
        </g>
    </g>
</svg>
