<svg width="100%" height="100%" viewBox="0 0 156 32" version="1.1" xmlns="http://www.w3.org/2000/svg" xmlns:xlink="http://www.w3.org/1999/xlink" xml:space="preserve" xmlns:serif="http://www.serif.com/" style="fill-rule:evenodd;clip-rule:evenodd;stroke-linejoin:round;stroke-miterlimit:2;">
    <g transform="matrix(1,0,0,1,0,-45.043)">
        <g id="share" transform="matrix(4.875,0,0,1,0,45.043)">
            <rect x="0" y="0" width="32" height="32" style="fill:none;"/>
            <g transform="matrix(0.458645,0,0,2.2359,-11.6377,7.40918)">
                <text x="45.479px" y="8.137px" style="font-family:'ArialMT', 'Arial', sans-serif;font-size:12px;fill:rgb(235,235,235);">S<tspan x="54.083px 63.349px 71.953px 81.219px " y="8.137px 8.137px 8.137px 8.137px ">HARE</tspan></text>
            </g>
            <g id="border" transform="matrix(0.0118093,0,0,0.060335,1.06064,0.554244)">
                <path d="M25.18,462.375C23.353,461.444 20.653,459.103 19.18,457.173C16.657,453.87 16.48,452.925 16.155,441.082C15.723,425.312 17.571,384.749 19.531,366.961C24.689,320.151 35.564,285.863 54.117,257.915C62.749,244.912 82.29,225.478 95.556,216.703C121.434,199.586 155.085,187.596 194,181.626C208.819,179.352 218.402,178.416 247.25,176.425L256,175.82L256,118.311C256,54.432 255.789,56.551 262.683,51.293C267.155,47.882 274.236,47.175 278.765,49.688C284.389,52.809 492.63,245.7 494.398,249.427C496.437,253.724 496.435,258.281 494.39,262.589C492.613,266.334 284.411,459.184 278.768,462.312C274.234,464.824 267.155,464.118 262.682,460.707C255.788,455.448 256,457.578 256,393.599C256,339.408 255.896,336 254.25,336.005C247.615,336.022 217.397,338.314 207.5,339.55C149.93,346.742 109.51,364.787 83.3,395C73.881,405.857 62.713,423.181 53.117,441.819C47.025,453.651 43.802,458.812 41.325,460.701C36.963,464.028 29.866,464.764 25.18,462.375ZM373.89,332.186C418.775,290.763 455.5,256.477 455.5,255.995C455.5,255.513 417.925,220.426 372,178.023L288.5,100.927L287.5,197.658L284.806,201.188C280.281,207.119 277.887,207.682 254.278,208.37C202.224,209.886 164.894,217.108 134.131,231.614C82.174,256.112 56.413,300.671 50.403,376.44L49.694,385.38L57.597,375.99C88.114,339.729 132.394,318.345 196.211,309.046C216.288,306.12 235.339,304.745 257.564,304.616L277.628,304.5L281.173,307.194C288.126,312.476 288,311.423 288,364.056L288,411.31L290.14,409.405C291.316,408.357 329.004,373.608 373.89,332.186Z" style="fill:rgb(235,235,235);fill-rule:nonzero;"/>
            </g>
            <g id="fill" transform="matrix(0.0118093,0,0,0.060335,1.06064,0.554244)">
                <path d="M373.89,332.186C418.775,290.763 455.5,256.477 455.5,255.995C455.5,255.513 417.925,220.426 372,178.023L288.5,100.927L287.5,197.658L284.806,201.188C280.281,207.119 277.887,207.682 254.278,208.37C202.224,209.886 164.894,217.108 134.131,231.614C82.174,256.112 56.413,300.671 50.403,376.44L49.694,385.38L57.597,375.99C88.114,339.729 132.394,318.345 196.211,309.046C216.288,306.12 235.339,304.745 257.564,304.616L277.628,304.5L281.173,307.194C288.126,312.476 288,311.423 288,364.056L288,411.31L290.14,409.405C291.316,408.357 329.004,373.608 373.89,332.186Z" style="fill-rule:nonzero;"/>
            </g>
        </g>
    </g>
</svg>
