<svg width="100%" height="100%" viewBox="0 0 32 32" version="1.1" xmlns="http://www.w3.org/2000/svg" xmlns:xlink="http://www.w3.org/1999/xlink" xml:space="preserve" xmlns:serif="http://www.serif.com/" style="fill-rule:evenodd;clip-rule:evenodd;stroke-linejoin:round;stroke-miterlimit:2;">
    <g transform="matrix(1,0,0,1,0,-88.7776)">
        <g id="zoom" transform="matrix(1,0,0,1,0,88.7776)">
            <rect x="0" y="0" width="32" height="32" style="fill:none;"/>
            <g transform="matrix(5.74607,0,0,1.22583,-7.44566,-3.61325)">
                <g id="path236" transform="matrix(0.0110823,0,0,0.0519482,1.2451,2.67374)">
                    <path d="M425,495.012C414.065,493.529 405.885,490.365 395.672,483.666C392.866,481.826 378.952,467.518 362.445,449.5C346.826,432.45 323.878,407.475 311.45,394C299.022,380.525 285.581,365.45 281.581,360.5C271.011,347.419 272.747,348.019 260.764,353.311C247.945,358.972 237.433,362.258 222.862,365.159C213.575,367.007 208.121,367.425 193,367.447C173.09,367.476 166.335,366.641 148.226,361.907C105.228,350.668 66.858,322.372 43.263,284.5C0.598,216.02 9.23,128.744 64.357,71.236C89.386,45.125 120.412,28.042 156.942,20.258C168.439,17.808 171.401,17.582 192,17.582C212.617,17.582 215.555,17.807 227.102,20.267C243.854,23.836 254.653,27.671 271.5,36.035C289.697,45.07 301.708,53.723 316.564,68.5C338.687,90.505 352.762,114.281 361.414,144.264C366.285,161.143 367.418,170.048 367.426,191.5C367.438,222.803 364.13,237.308 349.387,270.603C349.118,271.21 354.909,277.06 362.255,283.603C369.601,290.146 382.336,301.661 390.555,309.192C398.775,316.722 422.247,337.986 442.715,356.446C469.924,380.984 481.069,391.684 484.165,396.244C497.76,416.263 499.064,441.512 487.638,463.5C483.073,472.284 471.344,483.612 462,488.261C450.242,494.111 436.647,496.591 425,495.012Z" style="fill:rgb(235,235,235);fill-rule:nonzero;"/>
                </g>
                <g transform="matrix(0.368872,0,0,1.72062,-2.60359,-160.615)">
                    <circle cx="16.179" cy="100.644" r="4.133"/>
                </g>
            </g>
        </g>
    </g>
</svg>
